<svg id="main-logo-black" xmlns="http://www.w3.org/2000/svg" width="428.714" height="362.099" viewBox="0 0 428.714 362.099">
  <text id="PRODUCTIONS" transform="translate(16.114 347.099)" fill="#fff" font-size="51" font-family="LetterGothicStd, Letter Gothic Std" letter-spacing="0.1em"><tspan x="0" y="0">PRODUCTIONS</tspan></text>
  <path id="Tracé_1" data-name="Tracé 1" d="M542.74,535.616a53.81,53.81,0,0,1,6.619-25.2q6.522-11.97,26.74-29.008,15.248-12.517,22.882-22.215a33.886,33.886,0,0,0,7.629-21.48q0-10.878-6.8-17.68-6.706-6.8-18.009-6.8-11.951,0-19.484,7.977t-7.808,20.852H545.96q0-15.321,9.737-25.836t26.194-10.51q14.881,0,24.072,8.248,9.186,8.151,9.186,22.747a40.692,40.692,0,0,1-9.012,26.382q-8.9,11.153-24.337,24.463-17.661,14.789-23.985,24.482a38.911,38.911,0,0,0-6.246,21.669H613.6v7.513H542.74Z" transform="translate(-307.72 -270.201)" fill="#fff"/>
  <path id="Tracé_2" data-name="Tracé 2" d="M330.377,442.65l-11.033,2.214a38.522,38.522,0,0,0-3.505,16.278h8.548C324.546,453.741,326.62,447.625,330.377,442.65Z" transform="translate(-190.517 -289.277)" fill="#fff"/>
  <path id="Tracé_3" data-name="Tracé 3" d="M324.275,521.289q6.338-9.693,24-24.482,15.437-13.324,24.352-24.473a40.643,40.643,0,0,0,9.007-26.373c0-9.5-2.978-16.921-8.828-22.341l-11.081,2.224a21.669,21.669,0,0,1,4.559,3.437q6.8,6.8,6.8,17.68a33.91,33.91,0,0,1-7.629,21.48q-7.629,9.693-22.882,22.215-20.213,17.042-26.74,29.008a53.747,53.747,0,0,0-6.614,25.2v5.608h70.832v-7.513H318.029A38.911,38.911,0,0,1,324.275,521.289Z" transform="translate(-187.098 -279.447)" fill="#fff"/>
  <path id="Tracé_4" data-name="Tracé 4" d="M307.47,223.96h8.548v2.089q0,12.788,6.986,21.122t20.586,8.34q12.86,0,20.4-8.794,7.556-8.881,7.556-22.118,0-13.793-8.219-21.393-8.088-7.614-24.439-7.619v-7.5Q354.869,186,361.028,177.93a29.974,29.974,0,0,0,6.164-18.691q0-11.327-6.435-18.763-6.415-7.508-16.984-7.508-10.293,0-16.921,6.71-6.532,6.71-6.527,18.13H311.8q0-14.141,8.726-23.206,8.7-9.152,22.974-9.152,14.335,0,23.25,9.515,9,9.427,9,24.835,0,21.4-17.458,31.28A29.508,29.508,0,0,1,373.728,202.5q6.338,8.61,6.343,21.756,0,15.954-9.466,27.374t-27.664,11.39q-17.187,0-26.368-10.153-9.1-10.153-9.1-26.291Z" transform="translate(-186.194 -125.431)" fill="#fff"/>
  <path id="Tracé_5" data-name="Tracé 5" d="M570.7,0V.029L570.792,0Z" transform="translate(-294.789)" fill="#fff"/>
  <path id="Tracé_6" data-name="Tracé 6" d="M524.465,127.81l8.543-1.716V.06L497.73,10.9v7.977l26.735-7.615Z" transform="translate(-257.097 -0.031)" fill="#fff"/>
  <line id="Ligne_1" data-name="Ligne 1" y1="86.051" x2="428.714" transform="translate(0 94.884)" fill="#010101"/>
  <path id="Tracé_7" data-name="Tracé 7" d="M56.62,407.711l13.353-2.9,13.368-2.852,26.731-5.685q26.745-5.627,53.5-11.168c17.84-3.718,35.694-7.334,53.543-10.994l53.572-10.834L324.3,352.591c17.888-3.505,35.747-7.063,53.635-10.52s35.776-6.923,53.664-10.341l26.866-5.076,13.431-2.529,13.44-2.475-13.353,2.9L458.613,327.4l-26.731,5.7q-26.745,5.642-53.5,11.182c-17.835,3.718-35.694,7.329-53.543,10.994l-53.572,10.834-53.606,10.675c-17.888,3.51-35.747,7.063-53.635,10.52s-35.776,6.923-53.664,10.341l-26.866,5.062L70.06,405.236Z" transform="translate(-56.62 -226.776)" fill="#fff"/>
</svg>
